<?xml version="1.0" encoding="UTF-8"?>
<svg height="100%" id="Layer_2" data-name="Layer 2" xmlns="http://www.w3.org/2000/svg" viewBox="0 0 264 800">
  <defs>
    <style>
      .cls-1 {
        fill: #3598f3;
      }

      .cls-2 {
        fill: #0e7bdf;
      }

      .cls-3 {
        fill: #0964b8;
      }
    </style>
  </defs>
  <g id="Layer_1-2" data-name="Layer 1">
    <path class="cls-1" d="m.15,0s61.52,129.15,112.19,135.81,149.33,24,57.33,140C51,314.48,0,341.15,0,341.15L.15,0Z"/>
    <path class="cls-2" d="m0,329.81s54.84-117.33,136.92-90.67,15.41,252,15.41,252L.15,485.81l-.15-156Z"/>
    <path class="cls-3" d="m.15,431.81s78.85-42.67,205.52,117.33c113.2,142.99,25.47,175.01,24.7,175.23-2.76.77-5.26,1.44-7.37,2.1-25.33,8-48-28-68-28s-56.37-6.3-154.85,85.52v-352.19Z"/>
  </g>
</svg>