<?xml version="1.0" encoding="UTF-8"?>
<svg id="Layer_1" data-name="Layer 1" xmlns="http://www.w3.org/2000/svg" viewBox="0 0 549.33 1424">
  <path d="m549.33,712c0-322.77-103.37-598.94-249.72-712H4.39C2.92,1.13,1.46,2.29,0,3.46v195.45C55.85,89.26,129.69,22.55,210.67,22.55c174.19,0,315.4,308.68,315.4,689.45s-141.21,689.45-315.4,689.45c-80.97,0-154.82-66.71-210.67-176.35v195.45c1.46,1.17,2.92,2.31,4.39,3.45h295.23c146.35-113.06,249.72-389.23,249.72-712Z" style="fill: #3598f3;"/>
  <path d="m210.67,1401.45c174.19,0,315.4-308.68,315.4-689.45S384.86,22.55,210.67,22.55C129.69,22.55,55.85,89.26,0,198.9v330.83C31.99,263.31,132.33,68.86,251.17,68.86c144.61,0,261.83,287.94,261.83,643.14s-117.23,643.14-261.83,643.14c-118.83,0-219.17-194.45-251.17-460.87v330.83c55.85,109.64,129.69,176.35,210.67,176.35Z" style="fill: #0083e5;"/>
  <path d="m251.17,1355.14c144.61,0,261.83-287.94,261.83-643.14S395.77,68.86,251.17,68.86C132.33,68.86,31.99,263.31,0,529.73v364.53c31.99,266.42,132.33,460.87,251.17,460.87Z" style="fill: #00609b;"/>
</svg>