<?xml version="1.0" encoding="UTF-8"?>
<svg height="100%" id="Layer_2" data-name="Layer 2" xmlns="http://www.w3.org/2000/svg" viewBox="0 0 264 800">
  <defs>
    <style>
      .cls-1 {
        fill: #3598f3;
      }

      .cls-1, .cls-2, .cls-3 {
        isolation: isolate;
      }

      .cls-2 {
        fill: #0e7bdf;
      }

      .cls-3 {
        fill: #0964b8;
      }
    </style>
  </defs>
  <g id="Layer_2-2" data-name="Layer 2">
    <path class="cls-1" d="m351.65,102.49s-51.07-43.52-62.94-87.05c-11.87-43.52-83.09,16.82-95.95,35.61-12.86,18.79-133.54,182.01,0,283.89l158.88,31.65V102.49Z"/>
    <path class="cls-2" d="m351.65,174.04s-124.26,2.97-152.45,86.06c-23.37,99.41,16.32,103.86-34.13,173.6-50.45,69.74-44.18,77.98-44.18,87.87s230.76,37.59,230.76,37.59V174.04Z"/>
    <path class="cls-3" d="m351.65,556.52s-100.19-20.44-131.19-46.16S0,531.62,0,574.98s54.28,65.94,100.44,69.24,55.39,62.65,53.41,98.26c-1.98,35.61,45.42,63.97,197.79,41.54v-227.51Z"/>
  </g>
</svg>